<?xml version="1.0" standalone="no"?>
<!DOCTYPE svg PUBLIC "-//W3C//DTD SVG 20010904//EN"
 "http://www.w3.org/TR/2001/REC-SVG-20010904/DTD/svg10.dtd">
<svg version="1.0" xmlns="http://www.w3.org/2000/svg"
 width="339.000000pt" height="339.000000pt" viewBox="0 0 339.000000 339.000000"
 preserveAspectRatio="xMidYMid meet">
<metadata>
Created by potrace 1.11, written by Peter Selinger 2001-2013
</metadata>
<g transform="translate(0.000000,339.000000) scale(0.100000,-0.100000)"
fill="#000000" stroke="none">
<path d="M2570 2805 c-6 -104 -11 -152 -14 -170 -3 -11 -5 -22 -5 -25 -1 -3
-10 9 -21 25 -23 35 -25 20 -6 -51 13 -50 12 -55 -14 -117 -47 -113 -100 -182
-71 -94 29 88 20 188 -23 254 -32 49 -36 40 -14 -29 30 -93 29 -224 -1 -302
-11 -28 -108 -136 -122 -136 -7 0 -76 -64 -239 -223 -52 -51 -121 -114 -152
-140 -31 -26 -90 -81 -131 -121 -62 -62 -85 -77 -139 -95 -35 -12 -75 -23 -87
-26 -13 -2 -28 -11 -35 -19 -8 -12 -36 -16 -121 -17 -85 -1 -118 -5 -146 -20
-57 -28 -60 -82 -5 -86 16 -1 32 -6 35 -11 3 -5 16 -14 29 -21 33 -17 27 -29
-20 -42 -43 -11 -122 -49 -168 -81 -14 -9 -61 -31 -105 -49 -44 -17 -87 -37
-95 -44 -8 -8 -55 -32 -105 -55 -49 -23 -108 -52 -130 -63 -22 -12 -40 -20
-40 -19 0 1 -44 18 -98 37 -76 26 -107 42 -133 70 -37 40 -46 27 -18 -26 8
-17 14 -32 12 -34 -10 -10 -87 30 -110 57 -31 39 -43 34 -27 -11 16 -45 117
-125 188 -147 69 -22 322 -27 388 -8 33 10 45 10 59 0 14 -11 25 -11 62 0 27
9 50 10 61 5 10 -6 30 -4 53 4 21 7 39 11 41 8 3 -2 57 -6 122 -8 64 -2 119
-6 121 -8 3 -3 21 -1 40 3 20 5 49 4 65 0 16 -5 31 -5 34 0 3 5 13 8 23 7 10
0 34 6 53 15 19 9 52 23 74 33 22 9 59 25 82 35 37 17 47 18 80 6 34 -12 38
-18 51 -67 16 -66 22 -72 63 -71 17 0 42 -6 55 -15 16 -10 35 -13 54 -10 19 4
40 0 60 -11 25 -14 32 -15 39 -4 7 11 17 11 58 -1 41 -12 52 -13 67 -1 11 7
23 11 29 7 25 -15 75 -19 91 -8 9 7 26 11 36 8 11 -3 20 -1 20 4 0 5 10 9 23
9 16 -1 21 4 19 17 -3 14 1 17 16 13 11 -4 25 1 35 11 14 17 14 22 -5 62 -11
25 -33 56 -49 70 -33 29 -36 41 -11 41 11 0 27 -16 41 -40 25 -45 28 -46 65
-26 23 12 24 15 11 26 -21 17 -19 29 7 50 l23 18 -38 36 c-21 20 -44 36 -51
36 -7 0 -21 7 -32 15 -18 13 -16 14 19 13 21 -1 40 -5 43 -10 3 -4 14 -8 25
-8 21 0 26 29 8 47 -8 8 -8 17 1 33 17 31 -1 40 -52 27 -29 -7 -46 -7 -58 1
-12 7 -29 8 -52 2 -19 -6 -70 -11 -114 -12 -79 -2 -79 -2 -76 22 1 14 9 30 18
37 9 6 17 19 18 29 2 11 16 21 37 27 19 4 42 17 51 28 10 11 22 18 27 15 13
-8 41 4 41 18 0 6 18 22 40 36 22 13 40 30 40 37 0 7 9 13 20 13 11 0 20 4 20
9 0 11 69 81 80 81 5 0 12 9 15 20 3 11 13 20 21 20 8 0 18 8 21 18 4 9 15 24
25 33 10 9 18 21 18 27 0 5 14 15 30 21 19 6 30 17 30 28 0 10 9 26 20 36 11
9 17 23 14 32 -4 10 2 24 15 36 16 15 19 24 12 38 -8 15 -5 20 14 29 23 11 29
30 13 42 -10 8 3 23 37 40 23 12 30 23 31 46 0 17 10 40 22 52 24 24 29 48 10
54 -8 3 -3 16 16 38 25 30 26 35 12 46 -15 10 -12 16 20 48 20 20 34 40 30 43
-3 4 -29 -4 -56 -17 -27 -13 -53 -20 -57 -16 -4 4 22 34 57 66 36 33 61 59 57
60 -8 0 -76 -48 -87 -61 -10 -13 -92 -50 -89 -40 2 5 29 36 60 68 55 58 141
174 134 182 -2 2 -46 -39 -98 -90 -52 -52 -103 -101 -113 -109 -11 -8 -27 -21
-37 -29 -38 -30 -27 2 25 71 55 74 105 149 105 158 0 3 5 28 12 57 20 84 7 83
-33 -1 -20 -43 -51 -99 -68 -124 -33 -48 -98 -121 -98 -110 0 4 17 39 39 80
42 79 83 217 61 203 -5 -3 -10 3 -12 12 -2 12 -12 1 -31 -34 -15 -29 -27 -55
-27 -58 0 -3 -16 -34 -37 -70 -38 -64 -61 -86 -44 -42 5 13 12 46 15 73 3 27
10 66 15 87 7 31 7 36 -4 27 -10 -8 -15 -2 -23 27 l-10 38 -1 -35 c-4 -117
-36 -217 -94 -300 -15 -21 -15 -21 -22 17 -3 22 -1 52 5 68 17 44 19 144 5
200 -11 42 -13 45 -15 20z m139 -316 c-22 -33 -43 -58 -46 -55 -5 5 75 116 84
116 2 0 -15 -27 -38 -61z m-60 24 c-14 -38 -42 -83 -51 -83 -12 0 -10 5 23 59
36 57 43 64 28 24z m-99 -71 c0 -11 -9 -27 -20 -37 -23 -21 -26 -11 -7 28 14
31 27 35 27 9z m100 -31 c0 -6 -4 -13 -10 -16 -5 -3 -10 1 -10 9 0 9 5 16 10
16 6 0 10 -4 10 -9z m-68 -46 c-31 -52 -40 -50 -23 3 8 24 19 38 31 39 17 2
16 -3 -8 -42z m-42 -1 c0 -38 -37 -105 -83 -151 -28 -29 -54 -53 -57 -53 -8 0
-136 -119 -254 -235 -50 -49 -113 -108 -141 -130 -27 -22 -84 -74 -125 -115
-71 -71 -80 -77 -165 -105 -50 -16 -95 -35 -101 -43 -11 -15 -82 -23 -90 -10
-3 5 1 10 8 12 85 24 108 32 140 48 20 10 65 46 100 80 35 35 91 86 123 113
33 28 100 91 150 140 50 50 117 112 148 140 31 27 54 51 52 53 -3 3 8 12 24
21 57 31 137 117 154 164 4 10 11 16 15 13 4 -2 18 12 31 32 16 26 30 37 47
37 13 0 24 -5 24 -11z m-1216 -879 c-8 -5 -15 -23 -17 -40 -2 -27 1 -29 32
-31 18 -1 36 -6 40 -11 3 -6 16 -15 29 -22 33 -17 27 -29 -20 -42 -40 -10
-114 -47 -169 -83 -13 -8 -60 -29 -104 -47 -44 -17 -91 -39 -105 -49 -35 -25
-170 -90 -187 -90 -7 0 -13 -4 -13 -10 0 -5 -6 -10 -14 -10 -7 0 -27 -7 -42
-15 -33 -17 -89 -20 -79 -5 4 6 11 8 16 5 5 -4 9 -1 9 4 0 6 6 11 13 11 12 0
136 61 212 103 17 10 56 28 87 42 31 14 67 30 80 35 13 6 37 19 53 30 43 27
108 57 143 65 40 8 56 27 39 46 -25 30 -88 71 -102 65 -27 -10 -16 33 12 47
31 17 109 19 87 2z m509 -387 c12 -7 27 -13 32 -15 6 -1 28 -9 50 -16 37 -14
41 -19 55 -73 12 -47 20 -59 40 -65 24 -7 24 -7 2 -8 -12 -1 -34 6 -47 15 -14
9 -31 14 -39 11 -27 -11 -55 22 -62 73 -6 45 -9 50 -40 60 -19 7 -32 16 -29
21 8 12 12 11 38 -3z m-1379 -74 c64 -31 100 -63 50 -44 -16 6 -31 11 -34 11
-21 -2 -82 23 -110 45 l-35 26 37 -5 c20 -3 61 -18 92 -33z"/>
</g>
</svg>
